<svg width="64" height="64" viewBox="0 0 64 64" fill="none" xmlns="http://www.w3.org/2000/svg">
  <!-- Film Strip Background -->
  <path d="M54,2 H10 C5.58,2 2,5.58 2,10 V54 C2,58.42 5.58,62 10,62 H54 C58.42,62 62,58.42 62,54 V10 C62,5.58 58.42,2 54,2 Z" fill="#2D3748"/>
  
  <!-- Sprocket Holes -->
  <rect x="8" y="8" width="6" height="6" rx="2" fill="#4A5568"/>
  <rect x="8" y="20" width="6" height="6" rx="2" fill="#4A5568"/>
  <rect x="8" y="32" width="6" height="6" rx="2" fill="#4A5568"/>
  <rect x="8" y="44" width="6" height="6" rx="2" fill="#4A5568"/>
  <rect x="50" y="8" width="6" height="6" rx="2" fill="#4A5568"/>
  <rect x="50" y="20" width="6" height="6" rx="2" fill="#4A5568"/>
  <rect x="50" y="32" width="6" height="6" rx="2" fill="#4A5568"/>
  <rect x="50" y="44" width="6" height="6" rx="2" fill="#4A5568"/>

  <!-- Magnifying Glass -->
  <circle cx="35" cy="29" r="14" stroke="#01b4e4" stroke-width="5"/>
  <line x1="47" y1="41" x2="58" y2="52" stroke="#01b4e4" stroke-width="7" stroke-linecap="round"/>
</svg>